<mxfile host="app.diagrams.net" modified="2024-02-21T18:56:52.203Z" agent="Mozilla/5.0 (Windows NT 10.0; Win64; x64) AppleWebKit/537.36 (KHTML, like Gecko) Chrome/122.0.0.0 Safari/537.36" etag="9D8tT-ajsXwNF1snUSWi" version="23.1.5" type="device">
  <diagram id="C5RBs43oDa-KdzZeNtuy" name="Page-1">
    <mxGraphModel dx="674" dy="382" grid="1" gridSize="10" guides="1" tooltips="1" connect="1" arrows="1" fold="1" page="1" pageScale="1" pageWidth="827" pageHeight="1169" math="0" shadow="0">
      <root>
        <mxCell id="WIyWlLk6GJQsqaUBKTNV-0" />
        <mxCell id="WIyWlLk6GJQsqaUBKTNV-1" parent="WIyWlLk6GJQsqaUBKTNV-0" />
        <mxCell id="306EdjGjHKdlENVWctrO-2" style="edgeStyle=orthogonalEdgeStyle;rounded=0;orthogonalLoop=1;jettySize=auto;html=1;exitX=0.5;exitY=1;exitDx=0;exitDy=0;" edge="1" parent="WIyWlLk6GJQsqaUBKTNV-1" source="306EdjGjHKdlENVWctrO-0" target="306EdjGjHKdlENVWctrO-1">
          <mxGeometry relative="1" as="geometry" />
        </mxCell>
        <mxCell id="306EdjGjHKdlENVWctrO-0" value="Generate a random integer (&lt;b&gt;1-10&lt;/b&gt;) store in a variable called &lt;b&gt;secret&lt;/b&gt;" style="rounded=1;whiteSpace=wrap;html=1;" vertex="1" parent="WIyWlLk6GJQsqaUBKTNV-1">
          <mxGeometry x="370" y="240" width="120" height="60" as="geometry" />
        </mxCell>
        <mxCell id="306EdjGjHKdlENVWctrO-4" style="edgeStyle=orthogonalEdgeStyle;rounded=0;orthogonalLoop=1;jettySize=auto;html=1;" edge="1" parent="WIyWlLk6GJQsqaUBKTNV-1" source="306EdjGjHKdlENVWctrO-1" target="306EdjGjHKdlENVWctrO-3">
          <mxGeometry relative="1" as="geometry" />
        </mxCell>
        <mxCell id="306EdjGjHKdlENVWctrO-1" value="Get user guess and store in a variable called &lt;b&gt;guess&lt;/b&gt;" style="rounded=1;whiteSpace=wrap;html=1;" vertex="1" parent="WIyWlLk6GJQsqaUBKTNV-1">
          <mxGeometry x="370" y="360" width="120" height="60" as="geometry" />
        </mxCell>
        <mxCell id="306EdjGjHKdlENVWctrO-7" value="" style="edgeStyle=orthogonalEdgeStyle;rounded=0;orthogonalLoop=1;jettySize=auto;html=1;" edge="1" parent="WIyWlLk6GJQsqaUBKTNV-1" source="306EdjGjHKdlENVWctrO-3" target="306EdjGjHKdlENVWctrO-6">
          <mxGeometry relative="1" as="geometry" />
        </mxCell>
        <mxCell id="306EdjGjHKdlENVWctrO-8" value="Yes" style="edgeLabel;html=1;align=center;verticalAlign=middle;resizable=0;points=[];" vertex="1" connectable="0" parent="306EdjGjHKdlENVWctrO-7">
          <mxGeometry x="-0.3648" y="3" relative="1" as="geometry">
            <mxPoint as="offset" />
          </mxGeometry>
        </mxCell>
        <mxCell id="306EdjGjHKdlENVWctrO-13" value="" style="edgeStyle=orthogonalEdgeStyle;rounded=0;orthogonalLoop=1;jettySize=auto;html=1;" edge="1" parent="WIyWlLk6GJQsqaUBKTNV-1" source="306EdjGjHKdlENVWctrO-3" target="306EdjGjHKdlENVWctrO-12">
          <mxGeometry relative="1" as="geometry" />
        </mxCell>
        <mxCell id="306EdjGjHKdlENVWctrO-14" value="No" style="edgeLabel;html=1;align=center;verticalAlign=middle;resizable=0;points=[];" vertex="1" connectable="0" parent="306EdjGjHKdlENVWctrO-13">
          <mxGeometry x="-0.1712" y="1" relative="1" as="geometry">
            <mxPoint as="offset" />
          </mxGeometry>
        </mxCell>
        <mxCell id="306EdjGjHKdlENVWctrO-3" value="Is&lt;br&gt;guess equal to &lt;br&gt;secret?" style="rhombus;whiteSpace=wrap;html=1;" vertex="1" parent="WIyWlLk6GJQsqaUBKTNV-1">
          <mxGeometry x="350" y="480" width="160" height="80" as="geometry" />
        </mxCell>
        <mxCell id="306EdjGjHKdlENVWctrO-6" value="Print &quot;you guessed correctly&quot;" style="whiteSpace=wrap;html=1;" vertex="1" parent="WIyWlLk6GJQsqaUBKTNV-1">
          <mxGeometry x="610" y="490" width="120" height="60" as="geometry" />
        </mxCell>
        <mxCell id="306EdjGjHKdlENVWctrO-17" value="" style="edgeStyle=orthogonalEdgeStyle;rounded=0;orthogonalLoop=1;jettySize=auto;html=1;entryX=0.5;entryY=1;entryDx=0;entryDy=0;" edge="1" parent="WIyWlLk6GJQsqaUBKTNV-1" target="306EdjGjHKdlENVWctrO-16">
          <mxGeometry relative="1" as="geometry">
            <mxPoint x="190" y="510" as="sourcePoint" />
            <mxPoint x="280" y="450" as="targetPoint" />
            <Array as="points">
              <mxPoint x="190" y="450" />
              <mxPoint x="280" y="450" />
            </Array>
          </mxGeometry>
        </mxCell>
        <mxCell id="306EdjGjHKdlENVWctrO-18" value="Yes" style="edgeLabel;html=1;align=center;verticalAlign=middle;resizable=0;points=[];" vertex="1" connectable="0" parent="306EdjGjHKdlENVWctrO-17">
          <mxGeometry x="-0.1537" y="2" relative="1" as="geometry">
            <mxPoint x="34" as="offset" />
          </mxGeometry>
        </mxCell>
        <mxCell id="306EdjGjHKdlENVWctrO-20" value="" style="edgeStyle=orthogonalEdgeStyle;rounded=0;orthogonalLoop=1;jettySize=auto;html=1;" edge="1" parent="WIyWlLk6GJQsqaUBKTNV-1" source="306EdjGjHKdlENVWctrO-12" target="306EdjGjHKdlENVWctrO-19">
          <mxGeometry relative="1" as="geometry" />
        </mxCell>
        <mxCell id="306EdjGjHKdlENVWctrO-21" value="No" style="edgeLabel;html=1;align=center;verticalAlign=middle;resizable=0;points=[];" vertex="1" connectable="0" parent="306EdjGjHKdlENVWctrO-20">
          <mxGeometry x="0.1018" y="-4" relative="1" as="geometry">
            <mxPoint x="7" y="4" as="offset" />
          </mxGeometry>
        </mxCell>
        <mxCell id="306EdjGjHKdlENVWctrO-12" value="Is&lt;br&gt;guess less than&lt;br&gt;secret?" style="rhombus;whiteSpace=wrap;html=1;" vertex="1" parent="WIyWlLk6GJQsqaUBKTNV-1">
          <mxGeometry x="110" y="480" width="160" height="80" as="geometry" />
        </mxCell>
        <mxCell id="306EdjGjHKdlENVWctrO-22" style="edgeStyle=orthogonalEdgeStyle;rounded=0;orthogonalLoop=1;jettySize=auto;html=1;" edge="1" parent="WIyWlLk6GJQsqaUBKTNV-1" source="306EdjGjHKdlENVWctrO-16" target="306EdjGjHKdlENVWctrO-1">
          <mxGeometry relative="1" as="geometry" />
        </mxCell>
        <mxCell id="306EdjGjHKdlENVWctrO-16" value="Print &quot;guess is too low&quot;" style="whiteSpace=wrap;html=1;" vertex="1" parent="WIyWlLk6GJQsqaUBKTNV-1">
          <mxGeometry x="220" y="360" width="120" height="60" as="geometry" />
        </mxCell>
        <mxCell id="306EdjGjHKdlENVWctrO-25" style="edgeStyle=orthogonalEdgeStyle;rounded=0;orthogonalLoop=1;jettySize=auto;html=1;entryX=0.5;entryY=0;entryDx=0;entryDy=0;" edge="1" parent="WIyWlLk6GJQsqaUBKTNV-1" source="306EdjGjHKdlENVWctrO-19" target="306EdjGjHKdlENVWctrO-1">
          <mxGeometry relative="1" as="geometry" />
        </mxCell>
        <mxCell id="306EdjGjHKdlENVWctrO-19" value="Print &quot;guess is too high&quot;" style="whiteSpace=wrap;html=1;" vertex="1" parent="WIyWlLk6GJQsqaUBKTNV-1">
          <mxGeometry x="20" y="300" width="120" height="60" as="geometry" />
        </mxCell>
      </root>
    </mxGraphModel>
  </diagram>
</mxfile>
